<svg id="Layer_1" data-name="Layer 1" xmlns="http://www.w3.org/2000/svg" viewBox="0 0 193 232.97"><defs><style>.cls-1{fill:#3fa9f5;}.cls-2{fill:none;stroke:#d9eefd;stroke-miterlimit:10;stroke-width:6px;}</style></defs><title>WaterDropNav</title><path class="cls-1" d="M524.5,470a93.5,93.5,0,0,1-66.11-159.61l66.11-66.12,66.12,66.12A93.5,93.5,0,0,1,524.5,470Z" transform="translate(-428 -240.03)"/><path class="cls-1" d="M524.5,248.51l64,64a90.5,90.5,0,1,1-128,0l64-64m0-8.48-68.24,68.23a96.52,96.52,0,0,0,0,136.48h0a96.52,96.52,0,0,0,136.48,0h0a96.52,96.52,0,0,0,0-136.48L524.5,240Z" transform="translate(-428 -240.03)"/><path class="cls-2" d="M452.5,376.5a72,72,0,0,0,72,72" transform="translate(-428 -240.03)"/></svg>